<?xml version="1.0"?>
<svg width="512" height="512" xmlns="http://www.w3.org/2000/svg" xmlns:svg="http://www.w3.org/2000/svg">
 <g class="layer">
  <title>Layer 1</title>
  <path d="m256,0c-141.16406,0 -256,114.83594 -256,256s114.83594,256 256,256s256,-114.83594 256,-256s-114.83594,-256 -256,-256zm0,0" fill="#b4d4ed" id="svg_1"/>
  <path d="m256,512c-141.16406,0 -256,-114.83594 -256,-256s114.83594,-256 256,-256s256,114.83594 256,256s-114.83594,256 -256,256zm0,-480c-123.51953,0 -224,100.48047 -224,224s100.48047,224 224,224s224,-100.48047 224,-224s-100.48047,-224 -224,-224zm0,0" id="svg_2"/>
  <path d="m368,272l-224,0c-8.83203,0 -16,-7.16797 -16,-16s7.16797,-16 16,-16l224,0c8.83203,0 16,7.16797 16,16s-7.16797,16 -16,16zm0,0" id="svg_3"/>
 </g>
</svg>