<?xml version="1.0"?>
<svg width="512" height="512" xmlns="http://www.w3.org/2000/svg" xmlns:svg="http://www.w3.org/2000/svg">
 <g class="layer">
  <title>Layer 1</title>
  <path d="m256,0c-141.164062,0 -256,114.835938 -256,256s114.835938,256 256,256s256,-114.835938 256,-256s-114.835938,-256 -256,-256zm0,0" fill="#b4d4ed" id="svg_1"/>
  <path d="m256,512c-141.164062,0 -256,-114.835938 -256,-256s114.835938,-256 256,-256s256,114.835938 256,256s-114.835938,256 -256,256zm0,-480c-123.519531,0 -224,100.480469 -224,224s100.480469,224 224,224s224,-100.480469 224,-224s-100.480469,-224 -224,-224zm0,0" id="svg_2"/>
  <path d="m368,272l-224,0c-8.832031,0 -16,-7.167969 -16,-16s7.167969,-16 16,-16l224,0c8.832031,0 16,7.167969 16,16s-7.167969,16 -16,16zm0,0" id="svg_3"/>
  <path d="m256,384c-8.832031,0 -16,-7.167969 -16,-16l0,-224c0,-8.832031 7.167969,-16 16,-16s16,7.167969 16,16l0,224c0,8.832031 -7.167969,16 -16,16zm0,0" id="svg_4"/>
 </g>
</svg>